<mxfile host="app.diagrams.net" modified="2024-01-11T04:26:57.574Z" agent="Mozilla/5.0 (Windows NT 10.0; Win64; x64) AppleWebKit/537.36 (KHTML, like Gecko) Chrome/120.0.0.0 Safari/537.36" version="22.1.18" etag="tMnNC5Jjr8RveeJt5Pw9" type="github">
  <diagram name="Page-1" id="G-U_4DM4UjlwEds6aq4e">
    <mxGraphModel>
      <root>
        <mxCell id="0" />
        <mxCell id="1" parent="0" />
      </root>
    </mxGraphModel>
  </diagram>
</mxfile>
